<?xml version="1.0" encoding="utf-8"?>
<!-- Generator: Adobe Illustrator 19.1.0, SVG Export Plug-In . SVG Version: 6.00 Build 0)  -->
<svg version="1.1" baseProfile="tiny" id="Layer_1" xmlns="http://www.w3.org/2000/svg" xmlns:xlink="http://www.w3.org/1999/xlink"
	 x="0px" y="0px" viewBox="0 0 418.4 99.4" xml:space="preserve">
<g>
	<polygon fill="#616DB2" points="28.9,69.5 11.4,69.5 6.7,33.5 29.2,35 	"/>
	<path fill="#FFFFFF" d="M19.5,81.5c0.3-0.8,5.9-9.9,4.5-22.4c-1.4-11.9-8.2-18.8-8.4-18.7c-0.2,0-3.8,6.6-3.2,15.1
		c0.7,10.7,5.7,24,5.7,24.8C18.2,81.8,19,82.9,19.5,81.5z"/>
	<polygon fill="#B1E3E3" points="34.4,69.5 75.6,69.5 81.4,43 34.4,43 	"/>
	<path fill="#FFFFFF" d="M42.2,55.2c0,0,4.9-4.6,14.2-4.4c13.8,0.4,18.3,12.7,18.3,12.7s-5.7,2.2-15.2,0.2
		C51.4,62,42.2,55.2,42.2,55.2z"/>
	<path fill="#FFFFFF" d="M54.6,35c-3.9,6.7-8.4,13.5-13.5,20.2C28.4,71.8,14,85.1,0,94l2.8,3.3c14-8.9,27.9-23.1,40.6-39.7
		c5.1-6.7,9.6-13.4,13.5-20.2L54.6,35z"/>
	<polygon fill="#616DB2" points="69,74.1 69,99.4 15.4,99.4 12,74.1 	"/>
	<polygon fill="#EF7622" points="75.7,38.1 56.3,38.2 60.2,0.5 82.5,0 	"/>
	<path fill="#FFFFFF" d="M54,38.2c0,0,11.6-5.4,14.8-9.7c3-4.1,5-8.8,5.9-12.8S76.5,9,76.5,9s-1.8,0.9-3.2,1.7c-1,0.6-2.1,1.3-3.6,2
		c-1.3,0.7-5,2.8-8,6.1c-1.6,1.7-3.8,5.9-5.2,9.8C54.7,33.6,54,38.2,54,38.2z"/>
	<path fill="#616DB2" d="M38.2,11.3c-0.2-0.1-0.8,0.8-0.9,1.8c-0.1,0.8-3.1,12.8-2.9,25.1h16.5c0-2.7-0.3-5.4-1.3-8.7
		C46.9,19.6,38.5,11.5,38.2,11.3z"/>
	<path fill="#FFFFFF" d="M9,92.7v3.6c2.2-1.7,10.2-7.8,11.5-8.8c0.7-0.6,4.5-3.9,7.8-7h-3.2C21,83.9,12.3,90.6,9,92.7z"/>
	<path fill="#FFFFFF" d="M50.7,79.9c-11.5-6.2-22.6-1-25.6,0.6c-0.5,0.3,0,0.5,0,0.5s2.4,1,4.1,2c3.2,1.9,7.3,5.2,12.5,7.6
		c5.3,2.4,14,3.5,16.2,4c1.2,0.2,6.6,1.9,6.9,1.5C65.1,95.8,60.7,85.3,50.7,79.9z"/>
	<g>
		<path fill="#FFFFFF" d="M109.8,99v-9h-5.7v9h-5.3V77.8h5.3v7.9h5.7v-7.9h5.4V99H109.8z"/>
		<path fill="#FFFFFF" d="M123.7,99V77.8h13.4l-0.7,4.1H129v3.9h6.2V90H129v4.7h8.4V99H123.7z"/>
		<path fill="#FFFFFF" d="M157.4,99H145V77.8h5.4v16.9h8.1L157.4,99z"/>
		<path fill="#FFFFFF" d="M176.2,99h-12.4V77.8h5.4v16.9h8.1L176.2,99z"/>
		<path fill="#FFFFFF" d="M182.7,99V77.8h13.4l-0.7,4.1H188v3.9h6.2V90H188v4.7h8.4V99H182.7z"/>
		<path fill="#FFFFFF" d="M215.6,85.6l-0.1-7.8h4.9V99H215l-3.9-8.7c-0.9-2-1.7-3.9-2.3-5.4c0.1,1.7,0.1,4.6,0.2,6L209,99h-5V77.8
			h5.8l4.1,8.2c0.9,1.8,1.3,3.1,2,4.9C215.7,88.9,215.6,87.1,215.6,85.6z"/>
		<path fill="#FFFFFF" d="M229,99V77.8h5.5V99H229z"/>
		<path fill="#FFFFFF" d="M251.6,99.3c-3,0-5.5-0.6-7.4-2.3c-2.2-2-3.3-4.7-3.3-8.1c0-2.8,0.5-5,1.7-6.9c1.8-3,5.2-4.7,9-4.7
			c2.3,0,4.8,0.7,5.9,1.7l-2.4,3.4c-1.1-0.7-2.4-1.1-3.5-1.1c-1.3,0-2.7,0.6-3.4,1.3c-1.1,1.1-1.5,2.8-1.5,5.2c0,3,0.2,4.7,1,5.8
			c0.9,1.2,2.2,1.9,4,1.9c1.4,0,2.4-0.3,3.8-1.3l2.4,3C256.3,98.7,254.4,99.3,251.6,99.3z"/>
		<path fill="#FFFFFF" d="M280.2,99.4c-2.6,0-5.2-0.6-7.8-1.8l1.7-4c2.2,0.9,4,1.6,6.3,1.6c2.5,0,3.7-0.6,3.7-2.1
			c0-1.1-0.8-1.9-2.8-2.4l-2.7-0.6c-2.3-0.6-3.8-1.6-4.6-3c-0.6-1-0.9-2.1-0.9-3.3c0-3.9,3.5-6.7,8.6-6.7c2.9,0,6.1,0.9,8.1,2.2
			l-2.5,3.7c-2-1.1-3.9-1.6-5.5-1.6c-1.7,0-2.8,0.7-2.8,1.9c0,1,0.4,1.5,2.2,1.9l2.8,0.7c3.7,0.9,6,2.9,6,6.1
			C290.2,96.5,286.2,99.4,280.2,99.4z"/>
		<path fill="#FFFFFF" d="M311.2,82h-5.3v17h-5.4V82h-5.5v-4.2h17.2L311.2,82z"/>
		<path fill="#FFFFFF" d="M332.5,97.2c-1.1,1.1-3.3,2.2-6.6,2.2c-3.5,0-6.2-0.9-7.6-2.7c-0.9-1.2-1.1-2.5-1.1-4.5V77.8h5.4v13.8
			c0,1.3,0,1.9,0.4,2.4c0.6,0.7,1.5,1.1,2.8,1.1c1.1,0,1.9-0.4,2.5-0.9c0.4-0.4,0.7-0.9,0.7-3.2V77.8h5.4v14.1
			C334.3,95,333.7,96.1,332.5,97.2z"/>
		<path fill="#FFFFFF" d="M351.8,98.9c-0.9,0.1-2,0.1-3.6,0.1h-5.5V77.8h4.6c1.4,0,3.4,0,4.3,0.1c5.2,0.6,8.3,4.2,8.3,10.6
			C360,94.7,356.5,98.2,351.8,98.9z M350,81.7h-1.9v13.2h2.5c1.9,0,3.5-1.3,3.5-5.9C354.2,84.4,353.3,81.7,350,81.7z"/>
		<path fill="#FFFFFF" d="M367.3,99V77.8h5.5V99H367.3z"/>
		<path fill="#FFFFFF" d="M381.3,99V77.8h13.4l-0.7,4.1h-7.4v3.9h6.2V90h-6.1v4.7h8.4V99H381.3z"/>
		<path fill="#FFFFFF" d="M408.3,99.4c-2.6,0-5.2-0.6-7.8-1.8l1.7-4c2.2,0.9,4,1.6,6.3,1.6c2.5,0,3.7-0.6,3.7-2.1
			c0-1.1-0.8-1.9-2.8-2.4l-2.7-0.6c-2.3-0.6-3.8-1.6-4.6-3c-0.6-1-0.9-2.1-0.9-3.3c0-3.9,3.5-6.7,8.6-6.7c2.9,0,6.1,0.9,8.1,2.2
			l-2.5,3.7c-2-1.1-3.9-1.6-5.5-1.6c-1.7,0-2.8,0.7-2.8,1.9c0,1,0.4,1.5,2.2,1.9l2.8,0.7c3.7,0.9,6,2.9,6,6.1
			C418.4,96.5,414.4,99.4,408.3,99.4z"/>
	</g>
	<g>
		<path fill="#FFFFFF" d="M134.4,51.1l-1,1.7c-1.3-0.8-2.7-1.2-4.1-1.2c-1.9,0-3.2,0.8-3.2,2.1c0,1,0.7,1.6,2.6,2.1l2,0.5
			c1.1,0.3,2.3,0.8,3,1.5c0.7,0.7,1.1,1.7,1.1,2.7c0,1.5-0.9,3-2.4,3.8c-1,0.6-2.3,0.9-3.8,0.9c-1.9,0-3.9-0.5-5.5-1.4l0.9-1.8
			c1.6,0.9,3,1.3,4.7,1.3c1.1,0,1.7-0.2,2.4-0.6c0.7-0.5,1.2-1.1,1.2-1.9c0-1.2-0.8-1.9-2.9-2.5l-2.2-0.6c-2.2-0.6-3.6-2.1-3.6-3.8
			c0-2.6,2.3-4.4,5.5-4.4C131.1,49.7,133.1,50.2,134.4,51.1z"/>
		<path fill="#FFFFFF" d="M140.4,50h9.3l-0.3,1.9h-6.7v4.2h5.6v1.9h-5.6v4.8h7.2v2h-9.5V50z"/>
		<path fill="#FFFFFF" d="M155.7,50h9.3l-0.3,1.9H158v4.2h5.6v1.9H158v4.8h7.2v2h-9.5V50z"/>
		<path fill="#FFFFFF" d="M181.9,51.4l-1.1,1.5c-1.1-0.7-2-1.2-3.6-1.2c-2,0-3.4,0.8-4,2.1c-0.5,1-0.7,2.3-0.7,3.7
			c0,2.6,0.7,4.2,2.2,5c0.8,0.5,1.9,0.7,2.9,0.7c0.9,0,1.8-0.2,2.4-0.5v-4h-3.2l-0.4-1.9h5.8v7c-1.3,0.8-2.9,1.2-4.8,1.2
			c-2.3,0-4.1-0.7-5.4-2.1c-1.4-1.4-2-3.2-2-5.7c0-2.9,0.9-5,2.8-6.3c1.2-0.9,2.6-1.3,4.3-1.3C179,49.9,180.4,50.3,181.9,51.4z"/>
		<path fill="#FFFFFF" d="M188.1,50h9.3L197,52h-6.7v4.2h5.6v1.9h-5.6v4.8h7.2v2h-9.5V50z"/>
		<path fill="#FFFFFF" d="M203.4,50h4c2.4,0,3.4,0.2,4.3,0.8c1.1,0.7,1.8,1.9,1.8,3.4c0,2.6-1.7,4.2-4.5,4.2
			c0.3,0.1,0.6,0.4,0.8,0.7c0.5,0.6,1.4,1.7,2.2,2.8c0.9,1.2,2.4,3.1,2.4,3.1h-2.8c-0.3-0.7-0.9-1.5-1.3-2.2c-1.1-1.7-2-2.8-2.8-3.5
			c-0.6-0.5-1-0.7-1.7-0.7v6.5h-2.3V50z M205.7,51.9v4.9h1.5c1.6,0,2.4-0.2,3.1-0.7c0.5-0.4,0.8-1.1,0.8-1.9c0-1-0.6-1.8-1.6-2.1
			c-0.5-0.2-1.2-0.3-2.1-0.3H205.7z"/>
		<path fill="#FFFFFF" d="M237.9,51l-1.2,1.5c-0.9-0.6-1.9-0.9-3-0.9c-1.8,0-3.3,0.9-4.1,2.5c-0.4,0.9-0.6,2-0.6,3.5
			c0,2.1,0.4,3.1,1.3,4.2c0.9,1,2.1,1.5,3.5,1.5c1.2,0,2.3-0.4,3.2-0.9l1.1,1.5c-1.1,0.8-2.8,1.3-4.6,1.3c-4.2,0-7.1-3.1-7.1-7.5
			c0-4.4,3.1-7.8,7.2-7.8C235.3,49.8,236.9,50.2,237.9,51z"/>
		<path fill="#FFFFFF" d="M242.8,50h9.3l-0.3,1.9h-6.7v4.2h5.6v1.9h-5.6v4.8h7.2v2h-9.5V50z"/>
		<path fill="#FFFFFF" d="M258.2,50h2.6l4.8,8.1c1,1.6,1.8,3.4,1.9,3.5c0,0-0.2-2.1-0.3-4.1l-0.1-7.5h2.2v14.9h-2.4l-4.8-7.9
			c-0.9-1.5-2.1-3.9-2.1-3.9c0.1,0.6,0.1,2,0.2,4.1l0.1,7.6h-2.3V50z"/>
		<path fill="#FFFFFF" d="M274.4,50h11.4l-0.3,1.9H281v13h-2.2V52h-4.4V50z"/>
		<path fill="#FFFFFF" d="M290.5,50h9.3l-0.3,1.9h-6.7v4.2h5.6v1.9h-5.6v4.8h7.2v2h-9.5V50z"/>
		<path fill="#FFFFFF" d="M305.8,50h4c2.5,0,3.4,0.2,4.3,0.8c1.1,0.7,1.8,1.9,1.8,3.4c0,2.6-1.7,4.2-4.5,4.2
			c0.3,0.1,0.6,0.4,0.8,0.7c0.5,0.6,1.4,1.7,2.2,2.8c0.9,1.2,2.4,3.1,2.4,3.1H314c-0.3-0.7-0.9-1.5-1.3-2.2c-1.1-1.7-2-2.8-2.8-3.5
			c-0.6-0.5-1-0.7-1.7-0.7v6.5h-2.3V50z M308.1,51.9v4.9h1.5c1.6,0,2.5-0.2,3.1-0.7c0.5-0.4,0.8-1.1,0.8-1.9c0-1-0.6-1.8-1.6-2.1
			c-0.5-0.2-1.2-0.3-2.1-0.3H308.1z"/>
		<path fill="#FFFFFF" d="M329.9,50h8.9l-0.3,1.9h-6.3v4.2h5.2V58h-5.2v6.9h-2.3V50z"/>
		<path fill="#FFFFFF" d="M348.6,49.8c2.4,0,4.1,0.8,5.4,2.4c1.1,1.3,1.6,3,1.6,5.4c0,2.5-0.5,4.1-1.5,5.4c-1.3,1.6-2.8,2.2-5.2,2.2
			c-2.2,0-3.7-0.6-4.9-2c-1.4-1.5-2-3.3-2-5.8C341.9,52.7,344.5,49.8,348.6,49.8z M348.6,51.6c-1.4,0-2.7,0.6-3.3,1.5
			c-0.6,0.9-0.9,2.1-0.9,4c0,2.1,0.4,3.7,1,4.8c0.6,1,1.8,1.5,3.4,1.5c1.8,0,3-0.7,3.6-2.1c0.4-1,0.5-1.9,0.5-3.4
			c0-2-0.2-3.3-0.7-4.3C351.5,52.2,350.2,51.6,348.6,51.6z"/>
		<path fill="#FFFFFF" d="M361.4,50h4c2.4,0,3.4,0.2,4.3,0.8c1.1,0.7,1.8,1.9,1.8,3.4c0,2.6-1.7,4.2-4.5,4.2
			c0.3,0.1,0.6,0.4,0.8,0.7c0.5,0.6,1.4,1.7,2.2,2.8c0.9,1.2,2.4,3.1,2.4,3.1h-2.8c-0.3-0.7-0.9-1.5-1.3-2.2c-1.1-1.7-2-2.8-2.8-3.5
			c-0.6-0.5-1-0.7-1.7-0.7v6.5h-2.3V50z M363.7,51.9v4.9h1.5c1.6,0,2.4-0.2,3.1-0.7c0.5-0.4,0.8-1.1,0.8-1.9c0-1-0.6-1.8-1.6-2.1
			c-0.5-0.2-1.2-0.3-2.1-0.3H363.7z"/>
	</g>
</g>
</svg>
